<svg xmlns="http://www.w3.org/2000/svg" width="30.898" height="60.032" viewBox="0 0 30.898 60.032"><defs><style>.a{fill:#fff;}</style></defs><g transform="translate(-323.862 -268)"><path class="a" d="M925.683-4152.6s3.544,1.027,3.544,15.813v17.492s.006,13.8,13.348,14.057,14.006-12.438,14.006-13.527c0-17.43-20.8-14.615-20.8-14.615s.291,4.96,6.645,5.833,8.14,4.144,8.317,8.253-2.5,8.184-7.607,8.184-8.036-3.774-8.036-6.845v-24.174S934.925-4153.432,925.683-4152.6Z" transform="translate(-601.821 4420.641)"/><path class="a" d="M-40.339-30.7a2.256,2.256,0,0,1-.359,1.17,3.134,3.134,0,0,1-.925.981,2.008,2.008,0,0,1-1.142.387,1.608,1.608,0,0,1-1.278-.524,1.969,1.969,0,0,1-.458-1.344v-6.566l1.132-.4v7.17a1.356,1.356,0,0,0,.226.778.747.747,0,0,0,.66.335.932.932,0,0,0,.618-.217,1.347,1.347,0,0,0,.392-.557,1.862,1.862,0,0,0,.132-.679,2.1,2.1,0,0,0-.231-.939,2.283,2.283,0,0,0-.627-.783,1.5,1.5,0,0,0-.859-.344l1.019-.745a2.155,2.155,0,0,1,.826.491,2.887,2.887,0,0,1,.632.835A2.089,2.089,0,0,1-40.339-30.7Zm2.311,1.557a.389.389,0,0,0,.061.217.214.214,0,0,0,.193.094.446.446,0,0,0,.269-.1,1,1,0,0,0,.222-.226l.17.179a1.521,1.521,0,0,1-.467.547,1.084,1.084,0,0,1-.656.226q-.915,0-.915-.991v-7.4L-38.028-37Zm2.661-4.84-.594.189-.387-1.972,1.311-.443Zm.3,4.84a.359.359,0,0,0,.066.226.215.215,0,0,0,.179.085.655.655,0,0,0,.481-.33l.17.179a1.5,1.5,0,0,1-.533.576,1.236,1.236,0,0,1-.646.2q-.859,0-.859-.991v-3.4l1.142-.4Zm5.161-3.934a.573.573,0,0,1,.481.193.942.942,0,0,1,.189.453,4.778,4.778,0,0,1,.038.665v2.623a.358.358,0,0,0,.071.212.209.209,0,0,0,.175.1.381.381,0,0,0,.25-.09,1.717,1.717,0,0,0,.231-.241l.16.179a1.583,1.583,0,0,1-.467.552,1.045,1.045,0,0,1-.637.222.854.854,0,0,1-.679-.259,1.077,1.077,0,0,1-.226-.731v-2.472a.794.794,0,0,0-.028-.226.124.124,0,0,0-.132-.094q-.321,0-.651.684a8.39,8.39,0,0,0-.557,1.571,5.956,5.956,0,0,0-.226,1.34l-1.1.245v-3.963a.4.4,0,0,0-.066-.236.216.216,0,0,0-.189-.094.4.4,0,0,0-.259.109,1.008,1.008,0,0,0-.212.25l-.17-.189a1.424,1.424,0,0,1,.443-.566,1.037,1.037,0,0,1,.651-.236.849.849,0,0,1,.689.259,1.092,1.092,0,0,1,.217.722v1.821h.038a7.294,7.294,0,0,1,.759-1.925A1.438,1.438,0,0,1-29.9-33.075Zm3.576,2.7h.066a7.733,7.733,0,0,1,.807-1.887,1.436,1.436,0,0,1,1.231-.811.7.7,0,0,1,.557.236.854.854,0,0,1,.208.585,1.63,1.63,0,0,1-.486,1.113,4.971,4.971,0,0,1-1.118.906,2.174,2.174,0,0,0,.17.217,8.135,8.135,0,0,0,.693.844.852.852,0,0,0,.58.316.75.75,0,0,0,.594-.292l.17.189a1.685,1.685,0,0,1-.585.566,1.517,1.517,0,0,1-.793.226,1.086,1.086,0,0,1-.731-.283,6.093,6.093,0,0,1-.731-.793,5.756,5.756,0,0,0-.4-.453l-.085.047a3.784,3.784,0,0,0-.1.585q-.042.387-.052.67l-1.123.245v-8.444l1.123-.4Zm1.434-1.717q-.321,0-.67.731a12.721,12.721,0,0,0-.576,1.4,4.824,4.824,0,0,0,1.08-.84,1.365,1.365,0,0,0,.448-.915.465.465,0,0,0-.075-.264A.237.237,0,0,0-24.895-32.094Z" transform="translate(375.116 356.183)"/></g></svg>